<svg width="114" height="119" viewBox="0 0 114 119" fill="none" xmlns="http://www.w3.org/2000/svg">
<circle opacity="0.2" cx="57" cy="61.53" r="46.321" stroke="#6074F9" stroke-width="2" stroke-dasharray="12"/>
<circle opacity="0.2" cx="57" cy="61.5312" r="56" stroke="#6074F9" stroke-width="2" stroke-dasharray="12"/>
<path d="M95.0247 78.9937C95.0263 72.481 90.0328 67.0369 83.4982 66.4272C76.9637 65.8174 71.0349 70.2424 69.8129 76.6412L30.7284 75.5892L31.1575 82.2522C31.1575 82.2522 25.5843 95.0125 54.8753 98.4123V111.309H88.7374V89.8661C92.6285 87.6053 95.021 83.468 95.0247 78.9937Z" fill="url(#paint0_linear_646:2108)"/>
<path d="M32.5258 83.1873C32.5258 83.1873 27.2131 95.5319 55.1372 98.8253V111.308H87.4198V78.2504L32.1111 76.7402L32.5258 83.1873Z" fill="#F2B396"/>
<path d="M48.4732 31.857C46.6885 34.5673 42.9644 35.3817 40.1379 33.6798L22.4844 22.4846C19.6682 20.767 18.8219 17.1831 20.5903 14.4629C22.3748 11.7563 26.0941 10.9424 28.9193 12.6401L46.5727 23.8353C49.3912 25.5508 50.2404 29.1352 48.4732 31.857Z" fill="url(#paint1_linear_646:2108)"/>
<path d="M47.8644 30.6399C46.2463 33.1846 42.8698 33.9493 40.307 32.3515L24.2956 21.8318C21.7422 20.2191 20.9749 16.8541 22.5781 14.3001C24.1963 11.7553 27.5728 10.9906 30.1355 12.5884L46.1439 23.102C48.7022 24.7139 49.4713 28.0837 47.8644 30.6399Z" fill="#F2B396"/>
<circle cx="80.8518" cy="79.8527" r="12.0988" fill="#F2B396"/>
<path d="M30.7284 12.25C30.7284 5.48451 36.2129 0 42.9784 0H68.2562C75.0217 0 80.5062 5.48451 80.5062 12.25V78.3179C80.5062 85.0834 75.0217 90.5679 68.2562 90.5679H42.9784C36.2129 90.5679 30.7284 85.0834 30.7284 78.3179V12.25Z" fill="url(#paint2_linear_646:2108)"/>
<path d="M30.7284 15.0228C30.7284 7.48964 36.8352 1.38281 44.3684 1.38281H66.1748C73.708 1.38281 79.8148 7.48965 79.8148 15.0228V76.2366C79.8148 83.7698 73.708 89.8766 66.1748 89.8766H44.3684C36.8352 89.8766 30.7284 83.7698 30.7284 76.2366V15.0228Z" fill="white"/>
<path d="M68.2136 3.45703C67.9221 5.38699 66.2671 6.81565 64.3163 6.82137H47.4743C45.5241 6.81489 43.87 5.3864 43.5786 3.45703H34.6555C34.1642 3.45662 33.6928 3.65161 33.3453 3.99906C32.9977 4.34652 32.8025 4.81794 32.8025 5.30952V85.2573C32.802 85.7489 32.9969 86.2205 33.3442 86.5682C33.6915 86.916 34.1626 87.1114 34.6539 87.1114H77.2704C77.7617 87.1118 78.2331 86.9168 78.5806 86.5693C78.9282 86.2219 79.1234 85.7504 79.1234 85.2589V5.31107C79.1239 4.81949 78.929 4.34791 78.5817 4.00016C78.2345 3.65242 77.7633 3.45703 77.272 3.45703H68.2136Z" fill="#F96060"/>
<path d="M50.0864 4.8398C50.0864 4.45797 50.396 4.14844 50.7778 4.14844H60.4568C60.8386 4.14844 61.1482 4.45797 61.1482 4.8398C61.1482 5.22162 60.8386 5.53115 60.4568 5.53115H50.7778C50.396 5.53115 50.0864 5.22162 50.0864 4.8398Z" fill="#DBDBDB"/>
<circle cx="63.9136" cy="4.8398" r="0.691358" fill="#DBDBDB"/>
<path d="M88.2957 81.4181C84.8463 82.2251 82.4789 79.9494 81.6811 76.4616L73.7553 46.6902C72.9667 43.1889 75.1207 39.7005 78.5771 38.8814C82.0384 38.0836 85.487 40.2626 86.2967 43.759L92.7645 74.2987C93.5623 77.7881 91.7436 80.6111 88.2957 81.4181Z" fill="url(#paint3_linear_646:2108)"/>
<path d="M75.5301 47.301C74.8424 44.3248 76.6977 41.3547 79.6739 40.667C82.6501 39.9793 85.6202 41.8346 86.3079 44.8108L93.7786 77.1441C94.4662 80.1203 92.611 83.0905 89.6348 83.7781C86.6586 84.4658 83.6884 82.6105 83.0008 79.6343L75.5301 47.301Z" fill="#F2B396"/>
<path d="M47.321 106.469H93.642V117.53H47.321V106.469Z" fill="url(#paint4_linear_646:2108)"/>
<path d="M48.0123 107.852H91.5679V116.148H48.0123V107.852Z" fill="#6074F9"/>
<path d="M41.6056 63.6187C39.9136 66.3681 36.3821 67.1944 33.7018 65.4681L22.339 57.8994C19.6682 56.1575 18.8655 52.522 20.5425 49.7628C22.2346 47.0133 25.766 46.187 28.4463 47.9133L39.8091 55.4821C42.4799 57.224 43.2826 60.8594 41.6056 63.6187Z" fill="url(#paint5_linear_646:2108)"/>
<path d="M38.1382 79.5907C36.4244 82.2705 32.8468 83.0761 30.1315 81.3936L23.0656 76.291C20.3598 74.5936 19.5464 71.0504 21.2452 68.3612C22.9591 65.6814 26.5366 64.8758 29.2519 66.5583L36.3178 71.6625C39.0227 73.3598 39.836 76.9019 38.1382 79.5907Z" fill="url(#paint6_linear_646:2108)"/>
<g opacity="0.5">
<ellipse cx="55.9661" cy="45.6285" rx="14.0851" ry="13.8179" fill="url(#paint7_linear_646:2108)"/>
</g>
<circle cx="55.6173" cy="44.9385" r="13.1358" fill="white"/>
<path d="M55.0636 47.9011L62.1149 38.0254L64.6049 40.0011L55.0636 51.8526L48.0123 44.3468L50.0868 43.5554L55.0636 47.9011Z" fill="#F96060"/>
<path d="M38.8663 79.7021C37.2152 82.2709 33.77 83.0428 31.155 81.4299L24.3476 76.5441C21.7422 74.9163 20.9593 71.5195 22.5952 68.9413C24.2463 66.3725 27.6915 65.6006 30.3065 67.2135L37.1123 72.1086C39.7125 73.7356 40.4955 77.1255 38.8663 79.7021Z" fill="#F2B396"/>
<path d="M40.2761 63.1243C38.6863 65.677 35.3691 66.4441 32.8513 64.8413L22.1767 57.8125C19.6681 56.1948 18.9142 52.8193 20.4893 50.2572C22.0791 47.7046 25.3963 46.9375 27.9141 48.5403L38.5888 55.5691C41.0973 57.1868 41.8512 60.5623 40.2761 63.1243Z" fill="#F2B396"/>
<path d="M45.7139 48.4057C43.9439 51.1591 40.2515 51.9865 37.4488 50.2576L22.4603 40.6338C19.6681 38.8884 18.8292 35.2472 20.5824 32.4834C22.3523 29.73 26.0448 28.9027 28.8475 30.6315L43.836 40.2553C46.6281 42.0007 47.4671 45.6419 45.7139 48.4057Z" fill="url(#paint8_linear_646:2108)"/>
<path d="M43.7107 47.892C42.0773 50.4679 38.669 51.2419 36.082 49.6245L22.2456 40.6212C19.6681 38.9888 18.8935 35.5826 20.5119 32.9972C22.1454 30.4214 25.5537 29.6473 28.1406 31.2647L41.9755 40.2681C44.5535 41.9 45.3288 45.3062 43.7107 47.892Z" fill="#F2B396"/>
<defs>
<linearGradient id="paint0_linear_646:2108" x1="95.031" y1="111.317" x2="95.031" y2="66.3733" gradientUnits="userSpaceOnUse">
<stop stop-color="#808080" stop-opacity="0.25"/>
<stop offset="0.54" stop-color="#808080" stop-opacity="0.12"/>
<stop offset="1" stop-color="#808080" stop-opacity="0.1"/>
</linearGradient>
<linearGradient id="paint1_linear_646:2108" x1="15835.5" y1="6738.25" x2="15835.5" y2="3331.08" gradientUnits="userSpaceOnUse">
<stop stop-color="#808080" stop-opacity="0.25"/>
<stop offset="0.54" stop-color="#808080" stop-opacity="0.12"/>
<stop offset="1" stop-color="#808080" stop-opacity="0.1"/>
</linearGradient>
<linearGradient id="paint2_linear_646:2108" x1="43959.6" y1="59247.7" x2="43959.6" y2="6540.81" gradientUnits="userSpaceOnUse">
<stop stop-color="#808080" stop-opacity="0.25"/>
<stop offset="0.54" stop-color="#808080" stop-opacity="0.12"/>
<stop offset="1" stop-color="#808080" stop-opacity="0.1"/>
</linearGradient>
<linearGradient id="paint3_linear_646:2108" x1="17699.3" y1="25753.4" x2="17699.3" y2="13868.9" gradientUnits="userSpaceOnUse">
<stop stop-color="#808080" stop-opacity="0.25"/>
<stop offset="0.54" stop-color="#808080" stop-opacity="0.12"/>
<stop offset="1" stop-color="#808080" stop-opacity="0.1"/>
</linearGradient>
<linearGradient id="paint4_linear_646:2108" x1="33326.2" y1="9258.5" x2="33326.2" y2="8495.24" gradientUnits="userSpaceOnUse">
<stop stop-color="#808080" stop-opacity="0.25"/>
<stop offset="0.54" stop-color="#808080" stop-opacity="0.12"/>
<stop offset="1" stop-color="#808080" stop-opacity="0.1"/>
</linearGradient>
<linearGradient id="paint5_linear_646:2108" x1="11303.2" y1="9749.06" x2="11303.2" y2="7360.28" gradientUnits="userSpaceOnUse">
<stop stop-color="#808080" stop-opacity="0.25"/>
<stop offset="0.54" stop-color="#808080" stop-opacity="0.12"/>
<stop offset="1" stop-color="#808080" stop-opacity="0.1"/>
</linearGradient>
<linearGradient id="paint6_linear_646:2108" x1="9033.28" y1="10079" x2="9033.28" y2="8261.59" gradientUnits="userSpaceOnUse">
<stop stop-color="#808080" stop-opacity="0.25"/>
<stop offset="0.54" stop-color="#808080" stop-opacity="0.12"/>
<stop offset="1" stop-color="#808080" stop-opacity="0.1"/>
</linearGradient>
<linearGradient id="paint7_linear_646:2108" x1="12506.2" y1="10559.1" x2="12506.2" y2="5587.73" gradientUnits="userSpaceOnUse">
<stop stop-color="#808080" stop-opacity="0.25"/>
<stop offset="0.54" stop-color="#808080" stop-opacity="0.12"/>
<stop offset="1" stop-color="#808080" stop-opacity="0.1"/>
</linearGradient>
<linearGradient id="paint8_linear_646:2108" x1="13786" y1="8595.07" x2="13786" y2="5658.23" gradientUnits="userSpaceOnUse">
<stop stop-color="#808080" stop-opacity="0.25"/>
<stop offset="0.54" stop-color="#808080" stop-opacity="0.12"/>
<stop offset="1" stop-color="#808080" stop-opacity="0.1"/>
</linearGradient>
</defs>
</svg>
